<mxfile host="app.diagrams.net" modified="2024-02-28T11:49:39.509Z" agent="Mozilla/5.0 (Windows NT 10.0; Win64; x64) AppleWebKit/537.36 (KHTML, like Gecko) Chrome/122.0.0.0 Safari/537.36" version="23.1.7" etag="lHEe0L_MwbPq89HeUQu4" type="github">
  <diagram name="第 1 页" id="UqAG_5sFAz1wi7fieFnJ">
    <mxGraphModel>
      <root>
        <mxCell id="0" />
        <mxCell id="1" parent="0" />
      </root>
    </mxGraphModel>
  </diagram>
</mxfile>
